# xmcd
#
# Track frame offsets: 
#        150
#        13472
#        28647
#        45016
#        62774
#        83128
#        93543
#        111998
#        121618
#        143256
#        154843
#        166859
#        182869
#        198599
#        210988
#        223864
#        235664
#        257275
#
# Disc length: 3666 seconds
#
# Revision: 2
# Processed by: cddbd v1.5.2PL0 Copyright (c) Steve Scherf et al.
# Submitted via: ExactAudioCopyFreeDBPlugin 1.0
#
DISCID=e70e5012
DTITLE=Various Artist - Blick auf Country - Traditional Country
DYEAR=2006
DGENRE=Country
TTITLE0=Crystal Gayle - Why Have You Left The One You Left For Me
TTITLE1=Don Williams - Send Her Roses
TTITLE2=Eddie Rabbitt - On Second Thought
TTITLE3=The Krüger Brothers - The Cuckoo
TTITLE4=The Greencards - Time
TTITLE5=Gail Davies - I'll Be There
TTITLE6=Toni Vescoli and Augie Meyers - De Augie Und Ich - Toni and Me
TTITLE7=Jim Lauderdale and Ralph Stanley - I Feel Like Singing Today
TTITLE8=Dan Seals - Everything That Glitters (Is Not Gold)
TTITLE9=George Jones - She Thinks I Still Care
TTITLE10=Glen Campbell - Galveston
TTITLE11=Joe South - Games People Play
TTITLE12=Billie Jo Spears - Sing Me An Old Fashioned Song
TTITLE13=Wanda Jackson - Swinging Doors
TTITLE14=Willie Nelson - Crazy
TTITLE15=Tennessee Ernie Ford - Sixteen Tons
TTITLE16=Johnny Hill - Ruf Teddybär Eins-Vier
TTITLE17=Sunday Skifflers - Down At The Twist And Shout
EXTD=YEAR: 2006
EXTT0=
EXTT1=
EXTT2=
EXTT3=
EXTT4=
EXTT5=
EXTT6=
EXTT7=
EXTT8=
EXTT9=
EXTT10=
EXTT11=
EXTT12=
EXTT13=
EXTT14=
EXTT15=
EXTT16=
EXTT17=
PLAYORDER=
